<?xml version="1.0" standalone="no"?>
<!DOCTYPE svg PUBLIC "-//W3C//DTD SVG 20010904//EN"
 "http://www.w3.org/TR/2001/REC-SVG-20010904/DTD/svg10.dtd">
<svg version="1.0" xmlns="http://www.w3.org/2000/svg"
 width="298.000000pt" height="298.000000pt" viewBox="0 0 298.000000 298.000000"
 preserveAspectRatio="xMidYMid meet">
<metadata>
Created by potrace 1.14, written by Peter Selinger 2001-2017
</metadata>
<g transform="translate(0.000000,298.000000) scale(0.100000,-0.100000)"
fill="#000000" stroke="none">
<path d="M1694 2970 c-74 -10 -162 -35 -230 -65 -29 -13 -231 -137 -450 -276
-370 -235 -406 -260 -494 -349 -82 -81 -103 -109 -143 -190 -65 -132 -81 -206
-81 -370 0 -146 19 -241 68 -338 l24 -46 -23 -36 c-66 -105 -106 -265 -106
-417 0 -235 89 -439 268 -615 171 -168 394 -260 629 -259 126 1 231 20 337 63
74 30 623 369 844 521 290 199 416 553 317 893 -13 47 -33 102 -42 121 l-19
35 44 87 c66 131 78 189 78 371 0 135 -3 165 -23 230 -98 309 -363 554 -677
623 -89 20 -243 28 -321 17z m318 -363 c228 -83 383 -308 364 -532 -5 -68 -21
-131 -36 -149 -5 -4 -28 6 -53 23 -51 35 -160 90 -228 116 -45 16 -47 18 -51
65 -10 106 -118 176 -215 139 -43 -16 -725 -454 -752 -482 -45 -49 -45 -133 0
-191 51 -65 148 -77 227 -28 26 16 105 66 176 111 152 96 233 125 346 125 158
0 278 -50 391 -163 120 -120 166 -236 157 -400 -6 -104 -33 -179 -93 -258 -55
-74 -70 -84 -500 -358 -414 -263 -447 -279 -595 -279 -158 0 -275 49 -385 159
-118 118 -173 254 -162 405 3 41 12 94 19 118 l13 42 52 -35 c66 -45 159 -91
225 -114 53 -18 53 -18 58 -67 7 -61 21 -86 66 -121 30 -22 47 -27 93 -28 56
0 57 0 361 194 168 107 336 215 373 239 87 56 109 90 104 158 -6 90 -67 146
-157 146 -56 0 -53 1 -244 -120 -181 -115 -230 -134 -357 -140 -164 -7 -286
38 -405 150 -113 108 -168 233 -167 383 1 137 62 270 162 355 60 51 738 484
817 521 82 40 132 49 239 44 63 -2 110 -11 157 -28z"/>
</g>
</svg>
